<svg width="326" height="329" viewBox="0 0 326 329" fill="none" xmlns="http://www.w3.org/2000/svg">
<mask id="mask0_96_52" style="mask-type:alpha" maskUnits="userSpaceOnUse" x="0" y="1" width="326" height="328">
<rect y="1.06058" width="326" height="327.163" rx="163" fill="#D9D9D9"/>
</mask>
<g mask="url(#mask0_96_52)">
<path d="M0 246.51C27.3969 242.043 59.4099 233.772 109.671 221.965C97.3955 235.21 97.6022 247.89 107.11 268.104C122.026 299.202 134.03 308.488 156.07 309.271C173.536 304.46 181.614 298.735 192.376 282.085C202.044 254.558 215.727 241.312 210.002 229.267C225.159 233.493 230.942 238.247 247.664 244.646C264.385 251.045 271.152 255.322 282.312 261.579L325.849 282.085V329H0V246.51Z" fill="#1B12EA" stroke="black"/>
</g>
<path d="M97.7698 128.135L101.837 99.7065C103.29 91.7861 104.454 87.4999 111.027 81.8415C109.193 76.2044 108.438 71.9535 111.027 63.0444C113.62 53.2423 117.355 48.8409 124.736 41.1403C126.896 40.1907 128.366 40.2319 131.364 41.1403C135.19 36.4891 137.174 36.9847 139.8 35.5478C142.356 34.1976 147.412 35.3022 149.442 36.1692C151.284 33.9796 152.974 33.9818 156.823 35.5478C157.049 33.4518 158.057 32.9256 160.891 32.7516C163.08 33.346 165.071 33.7419 166.314 36.1692C167.558 38.5965 168.99 41.4768 169.327 41.1403C174.972 39.0414 174.661 38.3968 175.504 35.5478C178.615 34.4008 184.521 37.3338 189.363 41.1403C194.267 42.0969 197.833 42.5442 207.29 43.0045C215.204 46.4955 216.369 50.8903 220.547 58.2286C223.402 67.5315 223.589 72.6761 223.711 81.8415C225.905 84.6271 226.654 86.4341 227.477 89.9196C228.5 94.5661 229.917 102.07 230.339 108.717C232.603 89.7872 231.414 71.9103 220.547 50.4612C218.656 35.5818 217.566 31.0901 215.576 28.8679C214.443 26.0107 213.465 24.4788 209.55 22.1879C210.854 22.1128 209.443 17.8471 204.428 14.7312C199.413 11.6154 198.542 9.77506 195.69 7.42986C192.839 5.08465 192.648 4.74604 189.363 5.25499C187.117 4.57303 185.291 4.38463 180.776 4.47822C176.977 3.13615 174.122 2.35171 169.327 3.08012L169.313 3.08552C166.515 4.13694 164.942 4.7281 160.891 3.08012C157.873 -0.880858 153.882 0.948808 147.935 7.42986C145.263 6.95267 143.772 6.72901 141.307 7.42986C136.034 9.64483 133.634 11.5119 132.569 18.4596C129.544 19.4804 128.346 20.6812 125.489 24.2074C123.605 24.841 122.438 25.0924 121.12 29.3339C118.257 30.7061 115.36 35.3915 115.094 41.1403C113.402 41.7483 112.33 44.6618 112.081 46.7329C101.064 68.291 98.1767 78.1984 97.1672 103.59C97.7523 106.104 97.8864 107.71 98.8244 109.338C98.7022 109.759 98.5918 110.173 98.4922 110.581C97.5778 114.327 97.5706 117.586 97.6629 121.3C97.7147 123.381 97.7976 125.604 97.7698 128.135Z" fill="#6C4E4E"/>
<path d="M101.837 99.7065L97.7698 128.135C98.0944 133.333 98.4082 138.041 98.7547 142.427C98.8892 144.129 99.0286 145.783 99.1754 147.398C99.2324 148.025 99.2905 148.646 99.3499 149.262C99.6075 151.934 99.8891 154.508 100.207 157.03C101.063 163.828 102.18 170.253 103.796 177.225C105.865 182.844 108.296 188.325 111.049 193.537C122.35 214.936 139.063 231.789 158.33 235.015C166.258 235.622 187.895 235.535 210.002 202.172C212.916 197.774 215.839 192.797 218.739 187.167C221.491 181.777 223.471 174.14 225.924 162.312C227.425 155.072 229.103 146.262 231.243 135.437C231.268 133.675 231.308 132.081 231.355 130.621C231.436 128.106 231.537 125.989 231.611 124.096C231.743 120.704 231.787 118.032 231.475 115.086C231.272 113.17 230.918 111.138 230.339 108.717C229.917 102.07 228.5 94.5661 227.477 89.9196C226.654 86.4341 225.905 84.6271 223.711 81.8415C223.589 72.6761 223.402 67.5315 220.547 58.2286C216.369 50.8903 215.204 46.4955 207.29 43.0045C197.833 42.5442 194.267 42.0969 189.363 41.1403C184.521 37.3338 178.615 34.4008 175.504 35.5478C174.661 38.3968 174.972 39.0414 169.327 41.1403C168.99 41.4768 167.558 38.5965 166.314 36.1692C165.071 33.7419 163.08 33.346 160.891 32.7516C158.057 32.9256 157.049 33.4518 156.823 35.5478C152.974 33.9818 151.284 33.9796 149.442 36.1692C147.412 35.3022 142.356 34.1976 139.8 35.5478C137.174 36.9847 135.19 36.4891 131.364 41.1403C128.366 40.2319 126.896 40.1907 124.736 41.1403C117.355 48.8409 113.62 53.2423 111.027 63.0444C108.438 71.9535 109.193 76.2044 111.027 81.8415C104.454 87.4999 103.29 91.7861 101.837 99.7065Z" fill="#FFDFDF"/>
<path d="M158.33 235.015C139.063 231.789 122.35 214.936 111.049 193.537C111.602 200.465 112.395 201.301 111.479 216.994C111.025 219.135 110.65 220.24 109.671 221.965C104.047 224.424 103.173 226.294 98.4838 236.33L98.3724 236.568C104.524 289.227 116.371 297.606 150.195 312.533C175.224 308.267 186.411 298.188 206.688 265.929C213.649 232.727 215.706 232.16 210.002 229.267C209.473 228.711 209.254 228.326 208.947 227.558C209.014 215.554 209.101 208.363 210.002 202.172C187.895 235.535 166.258 235.622 158.33 235.015Z" fill="#FFDFDF"/>
<path d="M235.762 116.639C235.762 116.639 233.478 115.402 231.475 115.086C231.787 118.032 231.743 120.704 231.611 124.096C231.537 125.989 231.436 128.106 231.355 130.621C231.308 132.081 231.268 133.675 231.243 135.437C229.103 146.262 227.425 155.072 225.924 162.312C227.438 162.11 228 161.836 228.23 160.914C230.145 153.838 237.184 135.416 237.118 132.951C236.182 126.851 235.798 123.338 235.762 116.639Z" fill="#FFDFDF"/>
<path d="M98.4922 110.581C95.738 107.808 94.067 107.355 90.8401 108.561C90.1422 109.349 89.918 109.356 89.7856 111.202C89.4843 112.372 89.1151 113.477 89.183 114.931C88.2699 116.005 87.8369 118.835 86.7726 121.766C85.7084 124.697 86.622 131.242 86.622 131.242C88.347 140.42 89.3687 145.347 91.292 151.903C91.5829 154.541 92.1095 155.5 92.9201 156.977L92.9492 157.03C95.9432 158.987 97.5011 158.555 100.207 157.03C99.8891 154.508 99.6075 151.934 99.3499 149.262C99.2905 148.646 99.2324 148.025 99.1754 147.398C96.8592 146.112 95.4854 145.446 95.5102 142.427C96.4324 141.027 97.2454 141.443 98.7547 142.427C98.4082 138.041 98.0944 133.333 97.7698 128.135C97.7976 125.604 97.7147 123.381 97.6629 121.3C97.5706 117.586 97.5778 114.327 98.4922 110.581Z" fill="#FFDFDF"/>
<path d="M98.7547 142.427C97.2454 141.443 96.4324 141.027 95.5102 142.427C95.4854 145.446 96.8592 146.112 99.1754 147.398C99.0286 145.783 98.8892 144.129 98.7547 142.427Z" fill="#FFDFDF"/>
<path d="M97.7698 128.135L101.837 99.7065C103.29 91.7861 104.454 87.4999 111.027 81.8415C109.193 76.2044 108.438 71.9535 111.027 63.0444C113.62 53.2423 117.355 48.8409 124.736 41.1403C126.896 40.1907 128.366 40.2319 131.364 41.1403C135.19 36.4891 137.174 36.9847 139.8 35.5478C142.356 34.1976 147.412 35.3022 149.442 36.1692C151.284 33.9796 152.974 33.9818 156.823 35.5478C157.049 33.4518 158.057 32.9256 160.891 32.7516C163.08 33.346 165.071 33.7419 166.314 36.1692C167.558 38.5965 168.99 41.4768 169.327 41.1403C174.972 39.0414 174.661 38.3968 175.504 35.5478C178.615 34.4008 184.521 37.3338 189.363 41.1403C194.267 42.0969 197.833 42.5442 207.29 43.0045C215.204 46.4955 216.369 50.8903 220.547 58.2286C223.402 67.5315 223.589 72.6761 223.711 81.8415C225.905 84.6271 226.654 86.4341 227.477 89.9196C228.5 94.5661 229.917 102.07 230.339 108.717M97.7698 128.135C97.7976 125.604 97.7147 123.381 97.6629 121.3M97.7698 128.135C98.0944 133.333 98.4082 138.041 98.7547 142.427M230.339 108.717C232.603 89.7872 231.414 71.9103 220.547 50.4612C218.656 35.5818 217.566 31.0901 215.576 28.8679C214.443 26.0107 213.465 24.4788 209.55 22.1879C210.854 22.1128 209.443 17.8471 204.428 14.7312C199.413 11.6154 198.542 9.77506 195.69 7.42986C192.839 5.08465 192.648 4.74604 189.363 5.25499C187.117 4.57303 185.291 4.38463 180.776 4.47822C176.977 3.13615 174.122 2.35171 169.327 3.08012M230.339 108.717C230.918 111.138 231.272 113.17 231.475 115.086M169.327 3.08012L169.313 3.08552M169.327 3.08012C169.322 3.08192 169.318 3.08372 169.313 3.08552M98.4922 110.581C98.5918 110.173 98.7022 109.759 98.8244 109.338C97.8864 107.71 97.7523 106.104 97.1672 103.59C98.1767 78.1984 101.064 68.291 112.081 46.7329C112.33 44.6618 113.402 41.7483 115.094 41.1403C115.36 35.3915 118.257 30.7061 121.12 29.3339C122.438 25.0924 123.605 24.841 125.489 24.2074C128.346 20.6812 129.544 19.4804 132.569 18.4596C133.634 11.5119 136.034 9.64483 141.307 7.42986C143.772 6.72901 145.263 6.95267 147.935 7.42986C153.882 0.948808 157.873 -0.880858 160.891 3.08012C164.942 4.7281 166.515 4.13694 169.313 3.08552M98.4922 110.581C95.738 107.808 94.067 107.355 90.8401 108.561C90.1422 109.349 89.918 109.356 89.7856 111.202C89.4843 112.372 89.1151 113.477 89.183 114.931C88.2699 116.005 87.8369 118.835 86.7726 121.766C85.7084 124.697 86.622 131.242 86.622 131.242C88.347 140.42 89.3687 145.347 91.292 151.903C91.5829 154.541 92.1095 155.5 92.9201 156.977M98.4922 110.581C97.5778 114.327 97.5706 117.586 97.6629 121.3M92.9492 157.03C95.9432 158.987 97.5011 158.555 100.207 157.03M92.9492 157.03L92.9201 156.977M92.9492 157.03C92.9394 157.012 92.9297 156.994 92.9201 156.977M100.207 157.03C101.063 163.828 102.18 170.253 103.796 177.225C105.865 182.844 108.296 188.325 111.049 193.537M100.207 157.03C99.8891 154.508 99.6075 151.934 99.3499 149.262M97.6629 121.3C95.7331 116.97 94.3376 114.616 91.1414 110.581M93.7024 116.95C90.1234 127.042 89.6789 132.632 92.9492 142.427M98.7547 142.427C97.2454 141.443 96.4324 141.027 95.5102 142.427C95.4854 145.446 96.8592 146.112 99.1754 147.398M98.7547 142.427C98.8892 144.129 99.0286 145.783 99.1754 147.398M99.1754 147.398C99.2324 148.025 99.2905 148.646 99.3499 149.262M99.3499 149.262C97.8438 151.692 96.8045 152.572 94.6063 153.302M231.475 115.086C233.478 115.402 235.762 116.639 235.762 116.639C235.798 123.338 236.182 126.851 237.118 132.951C237.184 135.416 230.145 153.838 228.23 160.914C228 161.836 227.438 162.11 225.924 162.312M231.475 115.086C231.787 118.032 231.743 120.704 231.611 124.096M225.924 162.312C223.471 174.14 221.491 181.777 218.739 187.167C215.839 192.797 212.916 197.774 210.002 202.172M225.924 162.312C227.425 155.072 229.103 146.262 231.243 135.437C231.268 133.675 231.308 132.081 231.355 130.621C231.436 128.106 231.537 125.989 231.611 124.096M231.611 124.096C231.683 122.701 233.967 118.175 235.009 117.727M111.049 193.537C122.35 214.936 139.063 231.789 158.33 235.015C166.258 235.622 187.895 235.535 210.002 202.172M111.049 193.537C111.602 200.465 112.395 201.301 111.479 216.994C111.025 219.135 110.65 220.24 109.671 221.965C104.047 224.424 103.173 226.294 98.4838 236.33M210.002 202.172C209.101 208.363 209.014 215.554 208.947 227.558C209.254 228.326 209.473 228.711 210.002 229.267C215.706 232.16 213.649 232.727 206.688 265.929C186.411 298.188 175.224 308.267 150.195 312.533C116.371 297.606 104.524 289.227 98.3724 236.568M98.3724 236.568L98.4838 236.33M98.3724 236.568C98.4098 236.488 98.4469 236.409 98.4838 236.33" stroke="black"/>
<path d="M159.384 169.924C156.4 168.198 154.311 169.468 150.195 171.322L136.336 176.086C140.924 184.392 143.923 188.075 150.798 191.155C161.328 195.3 166.83 195.249 177.774 191.744C178.961 191.364 180.064 190.744 181.02 189.944C185.28 186.38 188.136 183.868 191.623 178.623C186.065 175.017 182.76 173.994 178.215 171.322C175.627 169.831 172.217 168.33 169.628 169.924C166.006 171.873 164.72 171.597 159.384 169.924Z" fill="#FFA8A8" fill-opacity="0.3"/>
<path d="M136.787 176.759L138.143 176.293C143.022 179.208 145.523 179.384 150.195 179.866C156.023 179.233 157.894 179.859 161.042 181.109C164.562 181.704 166.144 181.671 168.423 181.109C173.168 179.89 176.52 179.478 180.023 180.643C184.716 180.474 185.061 180.645 189.665 179.866C190.147 180.115 190.568 179.97 190.719 179.866M191.623 178.623C186.065 175.017 182.76 173.994 178.215 171.322C175.627 169.831 172.217 168.33 169.628 169.924C166.006 171.873 164.72 171.597 159.384 169.924C156.4 168.198 154.311 169.468 150.195 171.322L136.336 176.086C140.924 184.392 143.923 188.075 150.798 191.155C161.328 195.3 166.83 195.249 177.774 191.744C178.961 191.364 180.064 190.744 181.02 189.944C185.28 186.38 188.136 183.868 191.623 178.623Z" stroke="black"/>
<path d="M174.901 325.427C199.56 308.234 206.419 295.79 208.194 270.589C197.315 295.115 191.231 306.42 174.901 325.427Z" fill="#160FCD"/>
<path d="M232.298 260.647C231.771 284.349 230.514 299.706 227.778 312.222C236.654 299.821 238.475 264.784 232.298 260.647Z" fill="#160FCD"/>
<path fill-rule="evenodd" clip-rule="evenodd" d="M64.4969 243.481C49.9369 250.874 39.5664 256.139 30.4354 259.589L34.0611 264.628C47.7873 263.311 57.2083 256.356 69.2431 241.073C67.6122 241.9 66.0313 242.702 64.4969 243.481Z" fill="#160FCD"/>
<path d="M89.635 252.88C87.2245 242.298 90.4232 237.378 95.6609 229.111C96.3349 270.62 106.598 288.54 120.518 321.699C102.908 301.108 88.2697 268.77 89.635 252.88Z" fill="#160FCD"/>
<path d="M199.457 244.335C199.761 242.107 200.263 241.386 201.867 241.228C201.56 243.342 200.895 243.827 199.457 244.335Z" fill="#79503E" fill-opacity="0.4"/>
<path d="M139.348 272.764C140.518 271.689 140.852 272.196 141.458 273.075C140.707 273.976 140.277 274.352 139.348 272.764Z" fill="#79503E" fill-opacity="0.4"/>
<path d="M152.907 134.349C151.425 136.092 150.416 137.561 149.158 139.628C146.849 143.424 145.361 148.178 147.351 152.151C148.466 154.377 150.158 155.651 152.907 157.185M150.346 153.146C154.324 151.466 156.169 151.506 158.481 154.078C165.364 158.261 169.223 158.383 176.106 154.078C178.22 153.117 180.021 153.194 183.036 153.794M152.907 152.525C154.323 154.255 155.113 154.065 156.522 154.078M185.597 140.252C188.623 148.582 188.909 152.07 184.392 154.078C183.913 153.974 183.462 153.879 183.036 153.794M183.036 153.794C182.907 154.477 180.6 155.943 179.27 156.098" stroke="black"/>
<path d="M119.011 101.881C111.283 104.556 112.083 104.984 115.697 98.6004C126.209 90.5336 136.127 88.9174 153.509 95.5471C157.366 98.0945 157.079 98.5911 154.262 98.6004C132.896 99.6916 124.668 98.1772 119.011 101.881Z" fill="#6C4E4E" stroke="black"/>
<path d="M212.111 95.0461C199.702 92.6849 196.629 92.1357 184.693 96.5995C180.442 100.476 180.486 101.317 184.693 101.881C199.46 99.6015 207.953 99.7129 221.15 107.474C224.398 106.051 223.264 105.47 220.547 100.639C217.776 97.8328 215.084 96.6932 212.111 95.0461Z" fill="#6C4E4E" stroke="black"/>
<path d="M129.406 116.018C132.482 118.257 143.244 117.128 146.128 114.775C146.328 114.611 146.765 114.487 147.333 114.386C148.351 113.116 148.161 112.15 147.333 110.264C136.08 105.501 129.802 107.012 120.969 113.688C123.979 113.995 125.771 114.63 129.406 116.018Z" fill="#F5F5F5"/>
<path d="M147.333 110.264C136.08 105.501 129.802 107.012 120.969 113.688C123.979 113.995 125.771 114.63 129.406 116.018C132.482 118.257 143.244 117.128 146.128 114.775C146.328 114.611 146.765 114.487 147.333 114.386M147.333 110.264C149.064 110.996 150.913 111.877 152.907 112.911C153.206 113.312 153.163 113.468 152.907 113.688C151.538 113.993 148.921 114.101 147.333 114.386M147.333 110.264C148.161 112.15 148.351 113.116 147.333 114.386" stroke="black"/>
<path d="M141.711 110.291C141.7 113.181 139.363 115.518 136.486 115.518C134.291 115.518 132.41 114.158 131.637 112.227C131.176 111.077 131.052 109.776 131.206 108.517C134.854 107.807 137.55 107.8 141.296 108.542C141.572 109.027 141.639 109.447 141.711 110.291Z" fill="url(#paint0_linear_96_52)" stroke="black"/>
<path d="M153.057 110.425C146.072 104.832 142.676 102.992 127.297 105.92L122.777 107.629L119.915 109.649" stroke="black"/>
<path fill-rule="evenodd" clip-rule="evenodd" d="M215.877 115.241C205.975 109.126 199.29 108.264 189.664 112.479C188.095 114.013 188.097 114.879 189.363 115.963C192.094 116.289 194.099 116.878 196.895 118.038C204.728 120.286 208.912 119.9 215.877 115.241Z" fill="#F5F5F5"/>
<path d="M185.296 114.62C197.429 108.124 204.546 108.243 215.877 115.241M185.296 114.62C184.788 115.441 184.998 115.671 186.2 115.707C187.383 115.769 188.417 115.851 189.363 115.963M185.296 114.62C186.825 113.801 188.276 113.087 189.664 112.479M215.877 115.241C208.912 119.9 204.728 120.286 196.895 118.038C194.099 116.878 192.094 116.289 189.363 115.963M215.877 115.241C205.975 109.126 199.29 108.264 189.664 112.479M189.664 112.479C188.095 114.013 188.097 114.879 189.363 115.963" stroke="black"/>
<path d="M185.446 110.892C186.646 109.969 191.886 108.009 194.636 107.729M216.932 113.066C208.615 106.929 202.857 105.843 194.636 107.729M188.459 108.251C190.871 108.047 194.636 107.729 194.636 107.729" stroke="black"/>
<path d="M195.437 112.6C195.437 112.001 195.546 111.426 195.747 110.892C197.751 110.465 199.306 110.28 200.855 110.329C202.398 110.377 203.959 110.658 205.977 111.185C206.114 111.634 206.188 112.109 206.188 112.6C206.188 115.39 203.805 117.693 200.812 117.693C197.82 117.693 195.437 115.39 195.437 112.6Z" fill="url(#paint1_linear_96_52)" stroke="black"/>
<ellipse cx="172.34" cy="86.6573" rx="0.903882" ry="0.77674" fill="#8F543A" fill-opacity="0.4"/>
<path d="M125.037 88.5214C123.191 85.8023 124.365 84.7815 127.447 84.6378L125.037 88.5214Z" fill="#805846" fill-opacity="0.6"/>
<path d="M110.273 96.4442C111.338 95.4224 111.748 94.7905 111.931 93.4926C109.188 93.0241 108.926 93.7489 110.273 96.4442Z" fill="#805846" fill-opacity="0.6"/>
<defs>
<linearGradient id="paint0_linear_96_52" x1="136.421" y1="107.485" x2="136.49" y2="120.057" gradientUnits="userSpaceOnUse">
<stop stop-color="#8F543A"/>
<stop offset="1" stop-color="#8F543A" stop-opacity="0"/>
<stop offset="1" stop-color="#595858" stop-opacity="0"/>
</linearGradient>
<linearGradient id="paint1_linear_96_52" x1="200.812" y1="109.821" x2="200.973" y2="123.475" gradientUnits="userSpaceOnUse">
<stop stop-color="#8F543A"/>
<stop offset="1" stop-color="#595858" stop-opacity="0"/>
</linearGradient>
</defs>
</svg>
