<svg width="493" height="576" viewBox="0 0 493 576" fill="none" xmlns="http://www.w3.org/2000/svg">
<path d="M267.799 575.31H251.98C144.609 575.31 51.0005 516.39 1.72168 429.119L8.14672 427.756C57.7483 419.913 72.3412 409.483 163.338 388.753C141.114 412.008 141.488 434.269 158.701 469.758C185.707 524.357 207.44 540.661 247.343 542.035C278.964 533.59 293.589 523.538 313.074 494.305C330.579 445.977 355.351 422.72 344.985 401.572C372.427 408.992 382.897 417.34 413.171 428.574C443.446 439.808 455.697 447.318 475.903 458.303L491.722 467.966C439.081 533.42 358.332 575.31 267.799 575.31Z" fill="#1B12EA" stroke="black"/>
<path d="M140.158 224.016L147.522 174.104C150.153 160.198 152.26 152.673 164.159 142.738C160.84 132.841 159.472 125.378 164.159 109.736C168.855 92.5267 175.617 84.7991 188.979 71.2793C192.891 69.6121 195.551 69.6844 200.98 71.2793C207.907 63.1132 211.498 63.9833 216.254 61.4606C220.881 59.09 230.034 61.0294 233.709 62.5516C237.044 58.7072 240.105 58.7111 247.074 61.4606C247.482 57.7806 249.306 56.8568 254.438 56.5512C258.401 57.5948 262.005 58.2899 264.256 62.5516C266.508 66.8132 269.101 71.87 269.711 71.2793C279.932 67.5943 279.368 66.4625 280.894 61.4606C286.527 59.4467 297.219 64.5962 305.986 71.2793C314.865 72.9588 321.32 73.7442 338.443 74.5523C352.77 80.6813 354.881 88.3972 362.444 101.281C367.614 117.614 367.952 126.647 368.172 142.738C372.145 147.629 373.502 150.802 374.991 156.921C376.844 165.079 379.408 178.253 380.173 189.923C384.271 156.689 382.118 125.302 362.444 87.644C359.021 61.5201 357.046 53.6342 353.444 49.7326C351.393 44.7163 349.622 42.0267 342.534 38.0046C344.895 37.8728 342.341 30.3834 333.261 24.9129C324.18 19.4424 322.604 16.2114 317.442 12.0939C312.279 7.97647 311.933 7.38196 305.986 8.27552C301.919 7.07821 298.613 6.74743 290.44 6.91176C283.561 4.55549 278.392 3.17825 269.711 4.45711L269.685 4.46659C264.62 6.31256 261.772 7.35048 254.438 4.45711C248.973 -2.49716 241.749 0.715176 230.982 12.0939C226.143 11.2561 223.444 10.8635 218.981 12.0939C209.435 15.9828 205.09 19.2608 203.162 31.4587C197.684 33.251 195.516 35.3593 190.343 41.5503C186.932 42.6627 184.82 43.104 182.433 50.5508C177.249 52.9599 172.005 61.1861 171.524 71.2793C168.46 72.3467 166.519 77.4619 166.069 81.0981C146.121 118.948 140.895 136.342 139.067 180.922C140.126 185.337 140.369 188.156 142.067 191.014C141.846 191.753 141.646 192.479 141.466 193.196C139.81 199.773 139.797 205.495 139.964 212.015C140.058 215.668 140.208 219.572 140.158 224.016Z" fill="#6C4E4E"/>
<path d="M147.522 174.104L140.158 224.016C140.746 233.142 141.314 241.407 141.941 249.108C142.185 252.097 142.437 255 142.703 257.836C142.806 258.937 142.911 260.028 143.019 261.109C143.485 265.8 143.995 270.318 144.57 274.746C146.119 286.682 148.142 297.962 151.068 310.203C154.814 320.069 159.216 329.692 164.199 338.841C184.661 376.412 214.919 406.001 249.801 411.664C264.154 412.73 303.329 412.577 343.352 354.003C348.629 346.281 353.92 337.543 359.171 327.659C364.154 318.195 367.739 304.786 372.179 284.02C374.896 271.309 377.934 255.841 381.809 236.835C381.854 233.742 381.927 230.943 382.012 228.38C382.159 223.965 382.341 220.248 382.475 216.925C382.714 210.968 382.795 206.278 382.23 201.105C381.862 197.742 381.221 194.175 380.173 189.923C379.408 178.253 376.844 165.079 374.991 156.921C373.502 150.802 372.145 147.629 368.172 142.738C367.952 126.647 367.614 117.614 362.444 101.281C354.881 88.3972 352.77 80.6813 338.443 74.5523C321.32 73.7442 314.865 72.9588 305.986 71.2793C297.219 64.5962 286.527 59.4467 280.894 61.4606C279.368 66.4625 279.932 67.5943 269.711 71.2793C269.101 71.87 266.508 66.8132 264.256 62.5516C262.005 58.2899 258.401 57.5948 254.438 56.5512C249.306 56.8568 247.482 57.7806 247.074 61.4606C240.105 58.7111 237.044 58.7072 233.709 62.5516C230.034 61.0294 220.881 59.09 216.254 61.4606C211.498 63.9833 207.907 63.1132 200.98 71.2793C195.551 69.6844 192.891 69.6121 188.979 71.2793C175.617 84.7991 168.855 92.5267 164.159 109.736C159.472 125.378 160.84 132.841 164.159 142.738C152.26 152.673 150.153 160.198 147.522 174.104Z" fill="#FFDFDF"/>
<path d="M249.801 411.664C214.919 406.001 184.661 376.412 164.199 338.841C165.2 351.006 166.636 352.472 164.978 380.025C164.157 383.784 163.478 385.724 161.705 388.753C151.523 393.07 149.94 396.354 141.451 413.973L141.249 414.391C152.387 506.845 173.834 521.555 235.073 547.763C280.388 540.273 300.641 522.578 337.352 465.94C349.955 407.648 353.68 406.653 343.352 401.572C342.395 400.597 341.998 399.921 341.443 398.572C341.564 377.498 341.721 364.871 343.352 354.003C303.329 412.577 264.154 412.73 249.801 411.664Z" fill="#FFDFDF"/>
<path d="M389.991 203.833C389.991 203.833 385.855 201.66 382.23 201.105C382.795 206.278 382.714 210.968 382.475 216.925C382.341 220.248 382.159 223.965 382.012 228.38C381.927 230.943 381.854 233.742 381.809 236.835C377.934 255.841 374.896 271.309 372.179 284.02C374.92 283.665 375.937 283.184 376.354 281.565C379.821 269.143 392.566 236.799 392.446 232.471C390.752 221.761 390.055 215.593 389.991 203.833Z" fill="#FFDFDF"/>
<path d="M141.466 193.196C136.479 188.328 133.454 187.533 127.612 189.65C126.348 191.033 125.942 191.045 125.703 194.287C125.157 196.34 124.489 198.281 124.612 200.833C122.958 202.719 122.175 207.687 120.248 212.833C118.321 217.979 119.975 229.471 119.975 229.471C123.098 245.584 124.948 254.235 128.43 265.746C128.957 270.376 129.91 272.06 131.378 274.653L131.43 274.746C136.851 278.182 139.671 277.424 144.57 274.746C143.995 270.318 143.485 265.8 143.019 261.109C142.911 260.028 142.806 258.937 142.703 257.836C138.509 255.577 136.022 254.409 136.067 249.108C137.737 246.65 139.208 247.381 141.941 249.108C141.314 241.407 140.746 233.142 140.158 224.016C140.208 219.572 140.058 215.668 139.964 212.015C139.797 205.495 139.81 199.773 141.466 193.196Z" fill="#FFDFDF"/>
<path d="M141.941 249.108C139.208 247.381 137.737 246.65 136.067 249.108C136.022 254.409 138.509 255.577 142.703 257.836C142.437 255 142.185 252.097 141.941 249.108Z" fill="#FFDFDF"/>
<path d="M140.158 224.016L147.522 174.104C150.153 160.198 152.26 152.673 164.159 142.738C160.84 132.841 159.472 125.378 164.159 109.736C168.855 92.5267 175.617 84.7991 188.979 71.2793C192.891 69.6121 195.551 69.6844 200.98 71.2793C207.907 63.1132 211.498 63.9833 216.254 61.4606C220.881 59.09 230.034 61.0294 233.709 62.5516C237.044 58.7072 240.105 58.7111 247.074 61.4606C247.482 57.7806 249.306 56.8568 254.438 56.5512C258.401 57.5948 262.005 58.2899 264.256 62.5516C266.508 66.8132 269.101 71.87 269.711 71.2793C279.932 67.5943 279.368 66.4625 280.894 61.4606C286.527 59.4467 297.219 64.5962 305.986 71.2793C314.865 72.9588 321.32 73.7442 338.443 74.5523C352.77 80.6813 354.881 88.3972 362.444 101.281C367.614 117.614 367.952 126.647 368.172 142.738C372.145 147.629 373.502 150.802 374.991 156.921C376.844 165.079 379.408 178.253 380.173 189.923M140.158 224.016C140.208 219.572 140.058 215.668 139.964 212.015M140.158 224.016C140.746 233.142 141.314 241.407 141.941 249.108M380.173 189.923C384.271 156.689 382.118 125.302 362.444 87.644C359.021 61.5201 357.046 53.6342 353.444 49.7326C351.393 44.7163 349.622 42.0267 342.534 38.0046C344.895 37.8728 342.341 30.3834 333.261 24.9129C324.18 19.4424 322.604 16.2114 317.442 12.0939C312.279 7.97647 311.933 7.38196 305.986 8.27552C301.919 7.07821 298.613 6.74743 290.44 6.91176C283.561 4.55549 278.392 3.17825 269.711 4.45711M380.173 189.923C381.221 194.175 381.862 197.742 382.23 201.105M269.711 4.45711L269.685 4.46659M269.711 4.45711C269.703 4.46027 269.694 4.46343 269.685 4.46659M141.466 193.196C141.646 192.479 141.846 191.753 142.067 191.014C140.369 188.156 140.126 185.337 139.067 180.922C140.895 136.342 146.121 118.948 166.069 81.0981C166.519 77.4619 168.46 72.3467 171.524 71.2793C172.005 61.1861 177.249 52.9599 182.433 50.5508C184.82 43.104 186.932 42.6627 190.343 41.5503C195.516 35.3593 197.684 33.251 203.162 31.4588C205.09 19.2608 209.435 15.9828 218.981 12.0939C223.444 10.8635 226.143 11.2561 230.982 12.0939C241.749 0.715176 248.973 -2.49716 254.438 4.45711C261.772 7.35048 264.62 6.31256 269.685 4.46659M141.466 193.196C136.479 188.328 133.454 187.533 127.612 189.65C126.348 191.033 125.942 191.045 125.703 194.287C125.157 196.34 124.489 198.281 124.612 200.833C122.958 202.719 122.175 207.687 120.248 212.833C118.321 217.979 119.975 229.471 119.975 229.471C123.098 245.584 124.948 254.235 128.43 265.746C128.957 270.376 129.91 272.06 131.378 274.653M141.466 193.196C139.81 199.773 139.797 205.495 139.964 212.015M131.43 274.746C136.851 278.182 139.671 277.424 144.57 274.746M131.43 274.746L131.378 274.653M131.43 274.746C131.413 274.715 131.395 274.684 131.378 274.653M144.57 274.746C146.119 286.682 148.142 297.962 151.068 310.203C154.814 320.069 159.216 329.692 164.199 338.841M144.57 274.746C143.995 270.318 143.485 265.8 143.019 261.109M139.964 212.015C136.471 204.414 133.944 200.28 128.157 193.196M132.794 204.378C126.314 222.097 125.509 231.912 131.43 249.108M141.941 249.108C139.208 247.381 137.737 246.65 136.067 249.108C136.022 254.409 138.509 255.577 142.703 257.836M141.941 249.108C142.185 252.097 142.437 255 142.703 257.836M142.703 257.836C142.806 258.937 142.911 260.028 143.019 261.109M143.019 261.109C140.292 265.374 138.41 266.919 134.43 268.2M382.23 201.105C385.855 201.66 389.991 203.833 389.991 203.833C390.055 215.593 390.752 221.761 392.446 232.471C392.566 236.799 379.821 269.143 376.354 281.565C375.937 283.184 374.92 283.665 372.179 284.02M382.23 201.105C382.795 206.278 382.714 210.968 382.475 216.925M372.179 284.02C367.739 304.786 364.154 318.195 359.171 327.659C353.92 337.543 348.629 346.281 343.352 354.003M372.179 284.02C374.896 271.309 377.934 255.841 381.809 236.835C381.854 233.742 381.927 230.943 382.012 228.38C382.159 223.965 382.341 220.248 382.475 216.925M382.475 216.925C382.606 214.476 386.74 206.528 388.628 205.742M164.199 338.841C184.661 376.412 214.919 406.001 249.801 411.664C264.154 412.73 303.329 412.577 343.352 354.003M164.199 338.841C165.2 351.006 166.636 352.472 164.978 380.025C164.157 383.784 163.478 385.724 161.705 388.753C151.523 393.07 149.94 396.354 141.451 413.973M343.352 354.003C341.721 364.871 341.564 377.498 341.443 398.572C341.998 399.921 342.395 400.597 343.352 401.572C353.68 406.653 349.955 407.648 337.352 465.94C300.641 522.578 280.388 540.273 235.073 547.763C173.834 521.555 152.387 506.845 141.249 414.391M141.249 414.391L141.451 413.973M141.249 414.391C141.317 414.251 141.384 414.111 141.451 413.973" stroke="black"/>
<path d="M251.708 297.384C246.306 294.354 242.523 296.584 235.071 299.839L209.979 308.203C218.286 322.786 223.715 329.252 236.162 334.659C255.696 342.116 265.673 341.839 286.485 335.228C287.654 334.857 288.747 334.261 289.701 333.489C298.078 326.707 303.446 322.327 310.076 312.658C300.012 306.326 294.029 304.529 285.801 299.839C281.115 297.221 274.941 294.586 270.255 297.384C263.696 300.807 261.368 300.322 251.708 297.384Z" fill="#FFA8A8" fill-opacity="0.15"/>
<path d="M210.797 309.385L213.251 308.567C222.084 313.685 226.612 313.994 235.071 314.84C245.623 313.728 249.009 314.828 254.709 317.022C261.082 318.066 263.946 318.009 268.073 317.022C276.664 314.881 282.731 314.159 289.074 316.203C297.57 315.906 298.196 316.208 306.53 314.84C307.403 315.276 308.166 315.022 308.439 314.84M310.076 312.658C300.012 306.326 294.029 304.529 285.801 299.839C281.115 297.221 274.941 294.586 270.255 297.384C263.696 300.807 261.368 300.322 251.708 297.384C246.306 294.354 242.523 296.584 235.071 299.839L209.979 308.203C218.286 322.786 223.715 329.252 236.162 334.659C255.696 342.116 265.673 341.839 286.485 335.228C287.654 334.857 288.747 334.261 289.701 333.489C298.078 326.707 303.446 322.327 310.076 312.658Z" stroke="black"/>
<path d="M280.514 569.037C325.158 538.851 337.576 517.004 340.79 472.759C321.094 515.818 310.078 535.667 280.514 569.037Z" fill="#160FCD"/>
<path d="M384.429 455.303C383.475 496.917 381.2 523.88 376.247 545.854C392.317 524.08 395.613 462.567 384.429 455.303Z" fill="#160FCD"/>
<path fill-rule="evenodd" clip-rule="evenodd" d="M78.8183 425.166C52.4576 438.144 33.6821 447.389 17.1504 453.446L23.7147 462.292C48.5659 459.98 65.6224 447.769 87.4111 420.937C84.4584 422.389 81.5962 423.798 78.8183 425.166Z" fill="#160FCD"/>
<path d="M125.426 443.029C121.061 424.452 126.853 415.813 136.335 401.3C137.556 474.176 156.137 505.639 181.338 563.855C149.457 527.704 122.954 470.929 125.426 443.029Z" fill="#160FCD"/>
<path d="M324.259 428.028C324.81 424.116 325.719 422.85 328.623 422.574C328.068 426.285 326.863 427.137 324.259 428.028Z" fill="#79503E" fill-opacity="0.4"/>
<path d="M215.434 477.941C217.551 476.052 218.157 476.944 219.252 478.486C217.894 480.068 217.115 480.729 215.434 477.941Z" fill="#79503E" fill-opacity="0.4"/>
<path d="M239.981 275.019C233.301 271.404 230.069 268.61 228.181 261.492C227.012 257.082 228.178 252.434 230.539 248.529C234.283 242.337 236.344 239.074 239.981 234.926L248.436 221.834M235.345 267.928C242.547 264.978 245.888 265.048 250.073 269.564C262.535 276.907 269.522 277.122 281.984 269.564C285.81 267.876 289.072 268.012 294.53 269.065M239.981 266.837C242.546 269.875 243.975 269.541 246.527 269.564M294.53 269.065C295.302 269.214 296.117 269.381 296.985 269.564C305.162 266.037 304.645 259.914 299.167 245.29L290.439 223.198M294.53 269.065C294.297 270.265 290.12 272.838 287.712 273.11" stroke="black"/>
<path d="M178.615 177.922C164.622 182.617 166.071 183.369 172.614 172.162C191.646 157.999 209.603 155.161 241.073 166.801C248.056 171.273 247.536 172.145 242.437 172.162C203.753 174.077 188.856 171.419 178.615 177.922Z" fill="#6C4E4E" stroke="black"/>
<path d="M347.165 165.921C324.699 161.776 319.135 160.812 297.526 168.649C289.829 175.455 289.909 176.931 297.526 177.922C324.26 173.919 339.638 174.115 363.53 187.741C369.41 185.242 367.357 184.222 362.439 175.74C357.421 170.814 352.549 168.813 347.165 165.921Z" fill="#6C4E4E" stroke="black"/>
<path d="M197.434 202.742C203.003 206.673 222.487 204.692 227.708 200.56C228.072 200.272 228.862 200.054 229.89 199.876C231.734 197.647 231.391 195.951 229.89 192.639C209.517 184.277 198.151 186.93 182.16 198.651C187.61 199.19 190.854 200.304 197.434 202.742Z" fill="#F5F5F5"/>
<path d="M229.89 192.639C209.517 184.277 198.151 186.93 182.16 198.651C187.61 199.19 190.854 200.304 197.434 202.742C203.003 206.673 222.487 204.692 227.708 200.56C228.072 200.272 228.862 200.054 229.89 199.876M229.89 192.639C233.024 193.925 236.372 195.472 239.982 197.287C240.524 197.992 240.445 198.266 239.982 198.651C237.504 199.187 232.766 199.377 229.89 199.876M229.89 192.639C231.391 195.951 231.734 197.647 229.89 199.876" stroke="black"/>
<path d="M220.115 192.672C220.104 197.947 215.704 202.242 210.251 202.242C206.095 202.242 202.546 199.744 201.092 196.219C200.201 194.058 199.986 191.6 200.326 189.256C207.187 187.934 212.193 187.913 219.22 189.282C219.845 190.278 219.977 191.082 220.115 192.672Z" fill="#6C4E4E" stroke="black"/>
<path d="M240.254 192.923C227.607 183.101 221.459 179.873 193.614 185.013L185.432 188.013L180.25 191.559" stroke="black"/>
<path fill-rule="evenodd" clip-rule="evenodd" d="M353.993 201.378C336.065 190.641 323.964 189.127 306.536 196.528C303.694 199.222 303.698 200.742 305.99 202.646C310.935 203.217 314.565 204.252 319.628 206.288C333.809 210.236 341.384 209.558 353.993 201.378Z" fill="#F5F5F5"/>
<path d="M298.626 200.287C320.593 188.883 333.478 189.091 353.993 201.378M298.626 200.287C297.707 201.729 298.087 202.133 300.263 202.196C302.406 202.305 304.277 202.448 305.99 202.646M298.626 200.287C301.396 198.849 304.021 197.596 306.536 196.528M353.993 201.378C341.384 209.558 333.809 210.236 319.628 206.288C314.565 204.252 310.935 203.217 305.99 202.646M353.993 201.378C336.065 190.641 323.964 189.127 306.536 196.528M306.536 196.528C303.694 199.222 303.698 200.742 305.99 202.646" stroke="black"/>
<path d="M298.894 193.741C301.066 192.122 310.553 188.681 315.531 188.189M355.897 197.56C340.839 186.784 330.416 184.878 315.531 188.189M304.348 189.105C308.715 188.747 315.531 188.189 315.531 188.189" stroke="black"/>
<path d="M326.799 192.376C329.693 192.463 332.609 192.982 336.383 193.947C336.684 194.829 336.846 195.767 336.846 196.741C336.846 201.851 332.346 206.06 326.709 206.06C321.072 206.06 316.572 201.851 316.572 196.741C316.572 195.571 316.807 194.451 317.236 193.418L317.266 193.412C321.003 192.631 323.902 192.288 326.799 192.376Z" fill="#6C4E4E" stroke="black"/>
<ellipse cx="275.164" cy="151.193" rx="1.63646" ry="1.36372" fill="#8F543A" fill-opacity="0.4"/>
<path d="M189.523 154.466C186.18 149.692 188.306 147.9 193.886 147.647L189.523 154.466Z" fill="#805846" fill-opacity="0.6"/>
<path d="M162.794 168.376C164.722 166.582 165.463 165.473 165.794 163.194C160.828 162.371 160.354 163.644 162.794 168.376Z" fill="#805846" fill-opacity="0.6"/>
</svg>
