<svg width="560" height="565" viewBox="0 0 560 565" fill="none" xmlns="http://www.w3.org/2000/svg">
<mask id="mask0_96_52" style="mask-type:alpha" maskUnits="userSpaceOnUse" x="0" y="1" width="560" height="562">
<rect y="1.10397" width="560" height="561.672" rx="280" fill="#D9D9D9"/>
</mask>
<g mask="url(#mask0_96_52)">
<path d="M0 422.491C47.0621 414.822 102.054 400.623 188.392 380.352C167.305 403.091 167.66 424.859 183.993 459.562C209.616 512.951 230.236 528.894 268.096 530.238C298.098 521.98 311.974 512.15 330.462 483.566C347.07 436.308 370.574 413.566 360.739 392.887C386.776 400.143 396.71 408.305 425.434 419.291C454.159 430.276 465.783 437.619 484.954 448.361L559.741 483.566V564.109H0V422.491Z" fill="#1B12EA" stroke="black"/>
</g>
<path d="M167.948 219.265L174.935 170.459C177.431 156.861 179.43 149.503 190.721 139.788C187.572 130.111 186.274 122.813 190.721 107.518C195.176 90.6894 201.592 83.133 214.27 69.9128C217.981 68.2825 220.505 68.3532 225.656 69.9128C232.229 61.9275 235.636 62.7784 240.148 60.3116C244.539 57.9935 253.223 59.89 256.71 61.3784C259.874 57.6192 262.778 57.623 269.39 60.3116C269.777 56.7131 271.508 55.8098 276.377 55.511C280.137 56.5314 283.557 57.2112 285.693 61.3784C287.829 65.5456 290.29 70.4904 290.869 69.9128C300.566 66.3094 300.031 65.2027 301.479 60.3116C306.824 58.3423 316.968 63.3778 325.286 69.9128C333.71 71.555 339.835 72.323 356.081 73.1132C369.675 79.1064 371.678 86.6514 378.854 99.2499C383.759 115.221 384.08 124.053 384.288 139.788C388.058 144.571 389.345 147.673 390.758 153.657C392.516 161.634 394.949 174.516 395.675 185.928C399.563 153.43 397.521 122.739 378.854 85.9148C375.606 60.3698 373.732 52.6586 370.314 48.8435C368.369 43.9383 366.688 41.3083 359.963 37.3753C362.203 37.2465 359.78 29.923 351.165 24.5737C342.549 19.2244 341.054 16.065 336.155 12.0388C331.257 8.01252 330.929 7.43118 325.286 8.30494C321.427 7.13416 318.29 6.81071 310.536 6.9714C304.009 4.66734 299.105 3.32061 290.869 4.57113L290.844 4.58041C286.038 6.38548 283.336 7.40039 276.377 4.57114C271.192 -2.22905 264.338 0.912114 254.122 12.0388C249.531 11.2195 246.97 10.8355 242.736 12.0388C233.679 15.8414 229.556 19.0468 227.726 30.9745C222.529 32.727 220.472 34.7887 215.564 40.8424C212.327 41.9302 210.324 42.3617 208.059 49.6436C203.14 51.9993 198.165 60.0432 197.708 69.9128C194.801 70.9565 192.96 75.9584 192.532 79.514C173.606 116.525 168.647 133.534 166.913 177.126C167.918 181.443 168.148 184.2 169.76 186.994C169.55 187.717 169.36 188.427 169.189 189.128C167.618 195.559 167.606 201.155 167.765 207.53C167.853 211.102 167.996 214.919 167.948 219.265Z" fill="#6C4E4E"/>
<path d="M174.935 170.459L167.948 219.265C168.506 228.189 169.045 236.271 169.64 243.802C169.871 246.724 170.11 249.563 170.363 252.336C170.461 253.413 170.56 254.479 170.662 255.536C171.105 260.124 171.589 264.542 172.134 268.872C173.604 280.543 175.524 291.573 178.299 303.543C181.854 313.19 186.03 322.6 190.758 331.546C210.173 368.285 238.882 397.218 271.978 402.755C285.596 403.798 322.765 403.649 360.739 346.372C365.746 338.821 370.766 330.277 375.749 320.611C380.476 311.358 383.877 298.246 388.09 277.939C390.668 265.51 393.551 250.385 397.227 231.8C397.27 228.776 397.339 226.039 397.42 223.532C397.559 219.215 397.732 215.581 397.859 212.331C398.086 206.507 398.163 201.92 397.626 196.862C397.278 193.573 396.67 190.085 395.675 185.928C394.949 174.516 392.516 161.634 390.758 153.657C389.345 147.673 388.058 144.571 384.288 139.788C384.08 124.053 383.759 115.221 378.854 99.2499C371.678 86.6514 369.675 79.1064 356.081 73.1132C339.835 72.323 333.71 71.555 325.286 69.9128C316.968 63.3778 306.824 58.3423 301.479 60.3116C300.031 65.2027 300.566 66.3094 290.869 69.9128C290.29 70.4904 287.829 65.5456 285.693 61.3784C283.557 57.2112 280.137 56.5314 276.377 55.511C271.508 55.8098 269.777 56.7131 269.39 60.3116C262.778 57.623 259.874 57.6192 256.71 61.3784C253.223 59.89 244.539 57.9935 240.148 60.3116C235.636 62.7784 232.229 61.9275 225.656 69.9128C220.505 68.3532 217.981 68.2825 214.27 69.9128C201.592 83.133 195.176 90.6894 190.721 107.518C186.274 122.813 187.572 130.111 190.721 139.788C179.43 149.503 177.431 156.861 174.935 170.459Z" fill="#FFDFDF"/>
<path d="M271.978 402.755C238.882 397.218 210.173 368.285 190.758 331.546C191.708 343.441 193.07 344.875 191.497 371.818C190.718 375.493 190.074 377.39 188.392 380.352C178.731 384.574 177.23 387.785 169.175 405.013L168.983 405.422C179.551 495.828 199.9 510.212 258.004 535.839C300.998 528.515 320.215 511.212 355.046 455.829C367.004 398.829 370.538 397.855 360.739 392.887C359.832 391.934 359.454 391.273 358.928 389.954C359.042 369.346 359.191 356.999 360.739 346.372C322.765 403.649 285.596 403.798 271.978 402.755Z" fill="#FFDFDF"/>
<path d="M404.991 199.529C404.991 199.529 401.066 197.405 397.626 196.862C398.163 201.92 398.086 206.507 397.859 212.331C397.732 215.581 397.559 219.215 397.42 223.532C397.339 226.039 397.27 228.776 397.227 231.8C393.551 250.385 390.668 265.51 388.09 277.939C390.691 277.593 391.656 277.122 392.052 275.539C395.341 263.392 407.433 231.765 407.32 227.533C405.712 217.06 405.051 211.029 404.991 199.529Z" fill="#FFDFDF"/>
<path d="M169.189 189.128C164.458 184.368 161.587 183.59 156.044 185.661C154.845 187.014 154.46 187.025 154.233 190.195C153.715 192.203 153.081 194.101 153.198 196.596C151.629 198.441 150.885 203.299 149.057 208.33C147.229 213.362 148.798 224.599 148.798 224.599C151.762 240.356 153.517 248.815 156.821 260.07C157.32 264.598 158.225 266.245 159.617 268.781L159.667 268.872C164.81 272.231 167.486 271.49 172.134 268.872C171.589 264.542 171.105 260.124 170.662 255.536C170.56 254.479 170.461 253.413 170.363 252.336C166.384 250.127 164.024 248.985 164.067 243.802C165.651 241.398 167.047 242.113 169.64 243.802C169.045 236.271 168.506 228.189 167.948 219.265C167.996 214.919 167.853 211.102 167.765 207.53C167.606 201.155 167.618 195.559 169.189 189.128Z" fill="#FFDFDF"/>
<path d="M169.64 243.802C167.047 242.113 165.651 241.398 164.067 243.802C164.024 248.985 166.384 250.127 170.363 252.336C170.11 249.563 169.871 246.724 169.64 243.802Z" fill="#FFDFDF"/>
<path d="M167.948 219.265L174.935 170.459C177.431 156.861 179.43 149.503 190.721 139.788C187.572 130.111 186.274 122.813 190.721 107.518C195.176 90.6894 201.592 83.133 214.27 69.9128C217.981 68.2825 220.505 68.3532 225.656 69.9128C232.229 61.9275 235.636 62.7784 240.148 60.3116C244.539 57.9935 253.223 59.89 256.71 61.3784C259.874 57.6192 262.778 57.623 269.39 60.3116C269.777 56.7131 271.508 55.8098 276.377 55.511C280.137 56.5314 283.557 57.2112 285.693 61.3784C287.829 65.5456 290.29 70.4904 290.869 69.9128C300.566 66.3094 300.031 65.2027 301.479 60.3116C306.824 58.3423 316.968 63.3778 325.286 69.9128C333.71 71.555 339.835 72.323 356.081 73.1132C369.675 79.1064 371.678 86.6514 378.854 99.2499C383.759 115.221 384.08 124.053 384.288 139.788C388.058 144.571 389.345 147.673 390.758 153.657C392.516 161.634 394.949 174.516 395.675 185.928M167.948 219.265C167.996 214.919 167.853 211.102 167.765 207.53M167.948 219.265C168.506 228.189 169.045 236.271 169.64 243.802M395.675 185.928C399.563 153.43 397.521 122.739 378.854 85.9148C375.606 60.3698 373.732 52.6586 370.314 48.8435C368.369 43.9383 366.688 41.3083 359.963 37.3753C362.203 37.2465 359.78 29.923 351.165 24.5737C342.549 19.2244 341.054 16.065 336.155 12.0388C331.257 8.01252 330.929 7.43118 325.286 8.30494C321.427 7.13416 318.29 6.81071 310.536 6.9714C304.009 4.66734 299.105 3.32061 290.869 4.57113M395.675 185.928C396.67 190.085 397.278 193.573 397.626 196.862M290.869 4.57113L290.844 4.58041M290.869 4.57113C290.86 4.57423 290.852 4.57732 290.844 4.58041M169.189 189.128C169.36 188.427 169.55 187.717 169.76 186.994C168.148 184.2 167.918 181.443 166.913 177.126C168.647 133.534 173.606 116.525 192.532 79.514C192.96 75.9584 194.801 70.9565 197.708 69.9128C198.165 60.0432 203.14 51.9993 208.059 49.6436C210.324 42.3617 212.327 41.9302 215.564 40.8424C220.472 34.7887 222.529 32.727 227.726 30.9745C229.556 19.0468 233.679 15.8414 242.736 12.0388C246.97 10.8355 249.531 11.2195 254.122 12.0388C264.338 0.912114 271.192 -2.22905 276.377 4.57114C283.336 7.40039 286.038 6.38548 290.844 4.58041M169.189 189.128C164.458 184.368 161.587 183.59 156.044 185.661C154.845 187.014 154.46 187.025 154.233 190.195C153.715 192.203 153.081 194.101 153.198 196.596C151.629 198.441 150.885 203.299 149.057 208.33C147.229 213.362 148.798 224.599 148.798 224.599C151.762 240.356 153.517 248.815 156.821 260.07C157.32 264.598 158.225 266.245 159.617 268.781M169.189 189.128C167.618 195.559 167.606 201.155 167.765 207.53M159.667 268.872C164.81 272.231 167.486 271.49 172.134 268.872M159.667 268.872L159.617 268.781M159.667 268.872C159.651 268.841 159.634 268.811 159.617 268.781M172.134 268.872C173.604 280.543 175.524 291.573 178.299 303.543C181.854 313.19 186.03 322.6 190.758 331.546M172.134 268.872C171.589 264.542 171.105 260.124 170.662 255.536M167.765 207.53C164.45 200.097 162.052 196.055 156.562 189.128M160.961 200.063C154.813 217.388 154.05 226.986 159.667 243.802M169.64 243.802C167.047 242.113 165.651 241.398 164.067 243.802C164.024 248.985 166.384 250.127 170.363 252.336M169.64 243.802C169.871 246.724 170.11 249.563 170.363 252.336M170.363 252.336C170.461 253.413 170.56 254.479 170.662 255.536M170.662 255.536C168.075 259.707 166.29 261.218 162.514 262.471M397.626 196.862C401.066 197.405 404.991 199.529 404.991 199.529C405.051 211.029 405.712 217.06 407.32 227.533C407.433 231.765 395.341 263.392 392.052 275.539C391.656 277.122 390.691 277.593 388.09 277.939M397.626 196.862C398.163 201.92 398.086 206.507 397.859 212.331M388.09 277.939C383.877 298.246 380.476 311.358 375.749 320.611C370.766 330.277 365.746 338.821 360.739 346.372M388.09 277.939C390.668 265.51 393.551 250.385 397.227 231.8C397.27 228.776 397.339 226.039 397.42 223.532C397.559 219.215 397.732 215.581 397.859 212.331M397.859 212.331C397.983 209.937 401.906 202.165 403.697 201.396M190.758 331.546C210.173 368.285 238.882 397.218 271.978 402.755C285.596 403.798 322.765 403.649 360.739 346.372M190.758 331.546C191.708 343.441 193.07 344.875 191.497 371.818C190.718 375.493 190.074 377.39 188.392 380.352C178.731 384.574 177.23 387.785 169.175 405.013M360.739 346.372C359.191 356.999 359.042 369.346 358.928 389.954C359.454 391.273 359.832 391.934 360.739 392.887C370.538 397.855 367.004 398.829 355.046 455.829C320.215 511.212 300.998 528.515 258.004 535.839C199.9 510.212 179.551 495.828 168.983 405.422M168.983 405.422L169.175 405.013M168.983 405.422C169.048 405.285 169.111 405.149 169.175 405.013" stroke="black"/>
<path d="M273.789 291.008C268.663 288.045 265.075 290.225 258.004 293.408L234.196 301.587C242.078 315.846 247.229 322.17 259.039 327.457C277.538 334.734 287.003 334.479 306.673 328.05C307.858 327.663 308.958 327.045 309.916 326.247C317.818 319.652 322.899 315.367 329.168 305.943C319.62 299.751 313.943 297.995 306.137 293.408C301.69 290.848 295.833 288.271 291.386 291.008C285.163 294.354 282.954 293.88 273.789 291.008Z" fill="#FFA8A8" fill-opacity="0.3"/>
<path d="M234.972 302.742L237.301 301.942C245.682 306.947 249.978 307.25 258.004 308.076C268.015 306.99 271.228 308.065 276.636 310.21C282.683 311.231 285.4 311.175 289.316 310.21C297.467 308.117 303.224 307.411 309.242 309.41C317.303 309.12 317.897 309.415 325.804 308.076C326.632 308.503 327.357 308.254 327.616 308.076M329.168 305.943C319.62 299.751 313.943 297.995 306.137 293.408C301.69 290.848 295.833 288.271 291.386 291.008C285.163 294.354 282.954 293.88 273.789 291.008C268.663 288.045 265.075 290.225 258.004 293.408L234.196 301.587C242.078 315.846 247.229 322.17 259.039 327.457C277.538 334.734 287.003 334.479 306.673 328.05C307.858 327.663 308.958 327.045 309.916 326.247C317.818 319.652 322.899 315.367 329.168 305.943Z" stroke="black"/>
<path d="M300.444 557.975C342.802 528.458 354.585 507.095 357.634 463.83C338.946 505.935 328.495 525.345 300.444 557.975Z" fill="#160FCD"/>
<path d="M399.039 446.761C398.134 487.453 395.975 513.818 391.275 535.306C406.523 514.014 409.65 453.864 399.039 446.761Z" fill="#160FCD"/>
<path fill-rule="evenodd" clip-rule="evenodd" d="M110.792 417.291C85.7811 429.983 67.9669 439.022 52.2816 444.945L58.5098 453.595C82.0887 451.334 98.272 439.394 118.945 413.157C116.144 414.576 113.428 415.954 110.792 417.291Z" fill="#160FCD"/>
<path d="M153.974 433.426C149.833 415.26 155.328 406.813 164.326 392.621C165.483 463.882 183.113 494.648 207.024 551.574C176.775 516.225 151.629 460.707 153.974 433.426Z" fill="#160FCD"/>
<path d="M342.625 418.757C343.148 414.932 344.01 413.693 346.765 413.423C346.239 417.053 345.096 417.885 342.625 418.757Z" fill="#79503E" fill-opacity="0.4"/>
<path d="M239.372 467.564C241.38 465.717 241.955 466.589 242.994 468.097C241.706 469.643 240.967 470.29 239.372 467.564Z" fill="#79503E" fill-opacity="0.4"/>
<path d="M262.662 229.933C259.214 233.986 257.258 237.175 253.712 243.219C251.462 247.053 250.355 251.577 251.459 255.884C253.249 262.864 256.315 265.598 262.662 269.138M258.262 262.204C265.096 259.32 268.266 259.388 272.237 263.804C284.06 270.984 290.69 271.195 302.514 263.804C306.144 262.154 309.239 262.286 314.418 263.316M262.662 261.137C265.095 264.108 266.451 263.782 268.872 263.804M318.817 240.068C324.015 254.368 324.506 260.356 316.747 263.804C315.924 263.625 315.15 263.462 314.418 263.316M314.418 263.316C314.196 264.49 310.234 267.005 307.948 267.271" stroke="black"/>
<path d="M204.436 174.193C191.16 178.784 192.535 179.519 198.743 168.56C216.8 154.711 233.838 151.936 263.697 163.318C270.322 167.691 269.829 168.544 264.991 168.56C228.288 170.433 214.154 167.834 204.436 174.193Z" fill="#6C4E4E" stroke="black"/>
<path d="M364.362 162.458C343.046 158.404 337.767 157.461 317.264 165.125C309.961 171.78 310.038 173.223 317.264 174.193C342.63 170.279 357.22 170.47 379.889 183.794C385.468 181.351 383.521 180.353 378.854 172.059C374.093 167.242 369.47 165.286 364.362 162.458Z" fill="#6C4E4E" stroke="black"/>
<path d="M222.292 198.463C227.576 202.306 246.063 200.369 251.017 196.329C251.361 196.048 252.111 195.834 253.087 195.66C254.836 193.48 254.51 191.822 253.087 188.583C233.757 180.407 222.973 183.001 207.8 194.462C212.971 194.989 216.049 196.079 222.292 198.463Z" fill="#F5F5F5"/>
<path d="M253.087 188.583C233.757 180.407 222.973 183.001 207.8 194.462C212.971 194.989 216.049 196.079 222.292 198.463C227.576 202.306 246.063 200.369 251.017 196.329C251.361 196.048 252.111 195.834 253.087 195.66M253.087 188.583C256.061 189.841 259.236 191.354 262.662 193.128C263.176 193.818 263.102 194.085 262.662 194.462C260.311 194.986 255.815 195.172 253.087 195.66M253.087 188.583C254.51 191.822 254.836 193.48 253.087 195.66" stroke="black"/>
<path d="M243.788 188.615C243.777 193.781 239.601 197.963 234.455 197.963C230.532 197.963 227.172 195.533 225.791 192.088C224.942 189.969 224.741 187.574 225.063 185.282C231.554 183.995 236.295 183.975 242.944 185.308C243.533 186.278 243.658 187.064 243.788 188.615Z" fill="url(#paint0_linear_96_52)" stroke="black"/>
<path d="M262.921 188.861C250.922 179.258 245.088 176.1 218.669 181.127L210.906 184.061L205.989 187.528" stroke="black"/>
<path fill-rule="evenodd" clip-rule="evenodd" d="M370.832 197.129C353.821 186.629 342.339 185.15 325.804 192.386C323.108 195.02 323.111 196.507 325.286 198.369C329.977 198.927 333.422 199.939 338.225 201.93C351.681 205.791 358.868 205.127 370.832 197.129Z" fill="#F5F5F5"/>
<path d="M318.299 196.062C339.141 184.911 351.367 185.115 370.832 197.129M318.299 196.062C317.427 197.472 317.787 197.867 319.852 197.929C321.885 198.036 323.661 198.175 325.286 198.369M318.299 196.062C320.927 194.656 323.418 193.431 325.804 192.386M370.832 197.129C358.868 205.127 351.681 205.791 338.225 201.93C333.422 199.939 329.977 198.927 325.286 198.369M370.832 197.129C353.821 186.629 342.339 185.15 325.804 192.386M325.804 192.386C323.108 195.02 323.111 196.507 325.286 198.369" stroke="black"/>
<path d="M318.558 189.661C320.619 188.078 329.621 184.713 334.344 184.232M372.643 193.395C358.356 182.858 348.467 180.994 334.344 184.232M323.734 185.127C327.877 184.778 334.344 184.232 334.344 184.232" stroke="black"/>
<path d="M335.361 192.595C335.361 191.453 335.583 190.36 335.988 189.353L336.002 189.35C339.546 188.586 342.293 188.251 345.038 188.337C347.776 188.423 350.536 188.928 354.109 189.869C354.393 190.73 354.546 191.645 354.546 192.595C354.546 197.598 350.275 201.696 344.954 201.696C339.632 201.696 335.361 197.598 335.361 192.595Z" fill="url(#paint1_linear_96_52)" stroke="black"/>
<ellipse cx="296.044" cy="148.056" rx="1.55268" ry="1.3335" fill="#8F543A" fill-opacity="0.4"/>
<path d="M214.787 151.256C211.616 146.588 213.633 144.836 218.928 144.589L214.787 151.256Z" fill="#805846" fill-opacity="0.6"/>
<path d="M189.427 164.858C191.256 163.104 191.959 162.019 192.273 159.791C187.562 158.987 187.112 160.231 189.427 164.858Z" fill="#805846" fill-opacity="0.6"/>
<defs>
<linearGradient id="paint0_linear_96_52" x1="234.343" y1="183.813" x2="234.462" y2="205.397" gradientUnits="userSpaceOnUse">
<stop stop-color="#8F543A"/>
<stop offset="1" stop-color="#8F543A" stop-opacity="0"/>
<stop offset="1" stop-color="#595858" stop-opacity="0"/>
</linearGradient>
<linearGradient id="paint1_linear_96_52" x1="344.954" y1="187.824" x2="345.229" y2="211.264" gradientUnits="userSpaceOnUse">
<stop stop-color="#8F543A"/>
<stop offset="1" stop-color="#595858" stop-opacity="0"/>
</linearGradient>
</defs>
</svg>
