<svg width="40" height="40" viewBox="0 0 40 40" fill="none" xmlns="http://www.w3.org/2000/svg">
<rect x="6.25" y="3.125" width="6.25" height="31.25" rx="3.125" fill="#0A2A5E"/>
<rect x="17.1875" y="17.5" width="6.25" height="14.6875" rx="3.125" fill="#0A2A5E"/>
<path d="M28.125 15.625C28.125 13.8991 29.5241 12.5 31.25 12.5C32.9759 12.5 34.375 13.8991 34.375 15.625V22.3438V29.0625C34.375 30.7884 32.9759 32.1875 31.25 32.1875C29.5241 32.1875 28.125 30.7884 28.125 29.0625V15.625Z" fill="#0A2A5E"/>
<circle cx="31.25" cy="6.25" r="3.125" fill="#0A2A5E"/>
<path d="M34.375 28.9062C34.375 30.0348 34.1527 31.1523 33.7208 32.1949C33.289 33.2376 32.656 34.1849 31.8579 34.9829C31.0599 35.781 30.1126 36.414 29.0699 36.8458C28.0273 37.2777 26.9098 37.5 25.7812 37.5C24.6527 37.5 23.5352 37.2777 22.4926 36.8458C21.4499 36.414 20.5026 35.781 19.7046 34.9829C18.9065 34.1849 18.2735 33.2376 17.8417 32.1949C17.4098 31.1523 17.1875 30.0348 17.1875 28.9062L23.4363 28.9062C23.4363 29.2142 23.4969 29.5191 23.6148 29.8036C23.7326 30.0881 23.9053 30.3467 24.1231 30.5644C24.3408 30.7822 24.5994 30.9549 24.8839 31.0727C25.1684 31.1906 25.4733 31.2512 25.7812 31.2512C26.0892 31.2512 26.3941 31.1906 26.6786 31.0727C26.9632 30.9549 27.2217 30.7822 27.4394 30.5644C27.6572 30.3467 27.8299 30.0882 27.9477 29.8036C28.0656 29.5191 28.1262 29.2142 28.1262 28.9062H34.375Z" fill="#0A2A5E"/>
<path d="M23.4375 21.0938C23.4375 18.8145 22.5321 16.6287 20.9204 15.0171C19.3088 13.4054 17.123 12.5 14.8438 12.5C12.5645 12.5 10.3787 13.4054 8.76705 15.0171C7.15541 16.6287 6.25 18.8145 6.25 21.0937L12.4563 21.0938C12.4563 20.4606 12.7078 19.8533 13.1556 19.4056C13.6033 18.9578 14.2106 18.7063 14.8438 18.7063C15.4769 18.7063 16.0842 18.9578 16.5319 19.4056C16.9797 19.8533 17.2312 20.4606 17.2312 21.0938H23.4375Z" fill="#0A2A5E"/>
</svg>
