<svg width="32" height="32" viewBox="0 0 32 32" fill="none" xmlns="http://www.w3.org/2000/svg">
<rect x="5" y="2.5" width="5" height="25" rx="2.5" fill="white"/>
<rect x="13.75" y="14" width="5" height="11.75" rx="2.5" fill="white"/>
<path d="M22.5 12.5C22.5 11.1193 23.6193 10 25 10V10C26.3807 10 27.5 11.1193 27.5 12.5V17.875V23.25C27.5 24.6307 26.3807 25.75 25 25.75V25.75C23.6193 25.75 22.5 24.6307 22.5 23.25V12.5Z" fill="white"/>
<circle cx="25" cy="5" r="2.5" fill="white"/>
<path d="M27.5 23.125C27.5 24.0278 27.3222 24.9218 26.9767 25.7559C26.6312 26.5901 26.1248 27.348 25.4864 27.9864C24.848 28.6248 24.0901 29.1312 23.2559 29.4767C22.4218 29.8222 21.5278 30 20.625 30C19.7222 30 18.8282 29.8222 17.9941 29.4767C17.1599 29.1312 16.402 28.6248 15.7636 27.9864C15.1252 27.348 14.6188 26.5901 14.2733 25.7559C13.9278 24.9218 13.75 24.0278 13.75 23.125L18.749 23.125C18.749 23.3714 18.7975 23.6153 18.8918 23.8429C18.9861 24.0705 19.1243 24.2773 19.2985 24.4515C19.4727 24.6257 19.6795 24.7639 19.9071 24.8582C20.1347 24.9525 20.3786 25.001 20.625 25.001C20.8714 25.001 21.1153 24.9525 21.3429 24.8582C21.5705 24.7639 21.7773 24.6257 21.9515 24.4515C22.1257 24.2773 22.2639 24.0705 22.3582 23.8429C22.4525 23.6153 22.501 23.3714 22.501 23.125H27.5Z" fill="white"/>
<path d="M18.75 16.875C18.75 15.0516 18.0257 13.303 16.7364 12.0136C15.447 10.7243 13.6984 10 11.875 10C10.0516 10 8.30295 10.7243 7.01364 12.0136C5.72433 13.303 5 15.0516 5 16.875L9.96502 16.875C9.96502 16.3684 10.1663 15.8826 10.5244 15.5244C10.8826 15.1663 11.3684 14.965 11.875 14.965C12.3816 14.965 12.8674 15.1663 13.2256 15.5244C13.5837 15.8826 13.785 16.3684 13.785 16.875H18.75Z" fill="white"/>
</svg>
