<svg width="128" height="128" viewBox="0 0 128 128" fill="none" xmlns="http://www.w3.org/2000/svg">
<g clip-path="url(#clip0_2806_105)">
<rect x="20" y="10" width="20" height="100" rx="10" fill="#6366F1"/>
<rect x="55" y="56" width="20" height="47" rx="10" fill="#6366F1"/>
<path d="M90 50C90 44.4772 94.4772 40 100 40C105.523 40 110 44.4772 110 50V71.5V93C110 98.5228 105.523 103 100 103C94.4772 103 90 98.5228 90 93V50Z" fill="#6366F1"/>
<circle cx="100" cy="20" r="10" fill="#6366F1"/>
<path d="M110 92.5C110 96.1114 109.289 99.6873 107.907 103.024C106.525 106.36 104.499 109.392 101.945 111.945C99.3918 114.499 96.3602 116.525 93.0238 117.907C89.6873 119.289 86.1114 120 82.5 120C78.8886 120 75.3127 119.289 71.9762 117.907C68.6398 116.525 65.6082 114.499 63.0546 111.945C60.501 109.392 58.4753 106.36 57.0933 103.024C55.7113 99.6873 55 96.1113 55 92.5L74.996 92.5C74.996 93.4854 75.1901 94.4612 75.5672 95.3717C75.9443 96.2821 76.4971 97.1093 77.1939 97.8061C77.8907 98.5029 78.7179 99.0557 79.6283 99.4328C80.5388 99.8099 81.5146 100.004 82.5 100.004C83.4854 100.004 84.4612 99.8099 85.3717 99.4328C86.2821 99.0557 87.1093 98.5029 87.8061 97.8061C88.5029 97.1093 89.0557 96.2821 89.4328 95.3717C89.8099 94.4612 90.004 93.4854 90.004 92.5H110Z" fill="#6366F1"/>
<path d="M75 67.5C75 60.2065 72.1027 53.2118 66.9454 48.0546C61.7882 42.8973 54.7935 40 47.5 40C40.2065 40 33.2118 42.8973 28.0546 48.0546C22.8973 53.2118 20 60.2065 20 67.5L39.8601 67.5C39.8601 65.4738 40.665 63.5305 42.0978 62.0978C43.5305 60.665 45.4738 59.8601 47.5 59.8601C49.5262 59.8601 51.4695 60.665 52.9022 62.0978C54.335 63.5305 55.1399 65.4738 55.1399 67.5H75Z" fill="#6366F1"/>
</g>
<defs>
<clipPath id="clip0_2806_105">
<rect width="128" height="128" fill="white"/>
</clipPath>
</defs>
</svg>
